<svg width="30" height="30" viewBox="0 0 30 30" fill="none" xmlns="http://www.w3.org/2000/svg">
<path d="M14.6293 6.87534C14.7241 6.98008 14.8587 7.03983 15 7.03983C15.1413 7.03983 15.2759 6.98008 15.3707 6.87534L16.5748 5.54488C17.1918 4.87941 17.8864 4.37468 18.6594 4.02462C19.4323 3.67463 20.2421 3.5 21.0938 3.5C21.9454 3.5 22.7552 3.67463 23.5281 4.02462C24.3015 4.37486 24.9964 4.87992 25.6136 5.54588C26.0317 6.00323 26.3777 6.50236 26.6529 7.04395C26.9317 7.59273 27.1424 8.1624 27.2855 8.75361C27.4285 9.34437 27.5 9.94344 27.5 10.5516C27.5 11.1621 27.4323 11.7633 27.2968 12.3559C27.1626 12.9426 26.9534 13.5085 26.6682 14.0542C26.3838 14.5984 26.0323 15.0996 25.6127 15.5584C25.6126 15.5585 25.6125 15.5586 25.6125 15.5587L15.9977 26.0597C15.4603 26.6468 14.5397 26.6468 14.0023 26.0597L4.38752 15.5587C4.38748 15.5586 4.38743 15.5586 4.38738 15.5585C3.96887 15.1009 3.62252 14.6014 3.34713 14.0593C3.06781 13.5096 2.85708 12.9439 2.71407 12.3619C2.5716 11.782 2.5 11.1836 2.5 10.5655C2.5 9.94528 2.56787 9.3395 2.70324 8.74741C2.83739 8.16068 3.04659 7.59482 3.33181 7.04905C3.616 6.50523 3.96724 6.00438 4.38644 5.54581C5.00363 4.87988 5.6985 4.37485 6.47188 4.02462C7.24477 3.67463 8.05464 3.5 8.90625 3.5C9.75786 3.5 10.5677 3.67463 11.3406 4.02462C12.1136 4.37468 12.8082 4.87941 13.4252 5.54488L14.6293 6.87534Z" stroke="#191919" stroke-linejoin="round"/>
</svg>
