<svg width="20" height="20" viewBox="0 0 20 20" fill="none" xmlns="http://www.w3.org/2000/svg">
<path d="M9.63565 4.70231C9.73015 4.80286 9.86201 4.85989 10 4.85989C10.138 4.85989 10.2698 4.80286 10.3643 4.70231L11.1973 3.81605C11.6101 3.38741 12.0741 3.06295 12.5905 2.83775C13.1069 2.61255 13.6482 2.5 14.2188 2.5C14.7893 2.5 15.3306 2.61255 15.847 2.83775C16.3638 3.06309 16.828 3.38782 17.241 3.81686C17.5204 4.11125 17.7508 4.43156 17.9338 4.7783C18.1205 5.13225 18.2613 5.49901 18.3569 5.87922C18.4524 6.25896 18.5 6.64372 18.5 7.03443C18.5 7.42747 18.4547 7.81441 18.3641 8.19604C18.2749 8.57159 18.1358 8.93444 17.9453 9.28539C17.7557 9.63482 17.521 9.95721 17.24 10.2531L10.5837 17.2537C10.2715 17.5821 9.72852 17.5821 9.41631 17.2537L2.76001 10.2531C2.48015 9.95839 2.24942 9.63772 2.06625 9.29055C1.87896 8.9356 1.73814 8.57131 1.64268 8.19718C1.54779 7.82529 1.5 7.44116 1.5 7.04368C1.5 6.64391 1.54541 6.25391 1.63589 5.87281C1.72506 5.49726 1.86424 5.13441 2.05469 4.78347C2.24408 4.43449 2.47841 4.11249 2.75891 3.81694C3.17198 3.38786 3.6362 3.06311 4.15298 2.83775C4.66942 2.61255 5.2107 2.5 5.78125 2.5C6.3518 2.5 6.89308 2.61255 7.40952 2.83775C7.92594 3.06295 8.38988 3.38741 8.80273 3.81605L9.63565 4.70231Z" stroke="#191919" stroke-linejoin="round"/>
</svg>
