<svg width="24" height="24" viewBox="0 0 24 24" fill="none" xmlns="http://www.w3.org/2000/svg">
<path d="M12 5.44986C11.8601 5.44986 11.7265 5.39122 11.6318 5.28817L10.6133 4.17983C10.0983 3.63285 9.51908 3.21842 8.87447 2.93094C8.22994 2.64349 7.55458 2.5 6.84375 2.5C6.13293 2.5 5.45756 2.64349 4.81303 2.93094C4.16807 3.21857 3.58853 3.6333 3.07332 4.18072C2.72341 4.55773 2.43052 4.96914 2.19362 5.41559C1.95569 5.86399 1.78139 6.32843 1.66966 6.80971C1.55667 7.29642 1.5 7.79445 1.5 8.3046C1.5 8.81251 1.55974 9.30395 1.67849 9.77997C1.79779 10.2582 1.97366 10.7232 2.20705 11.1756C2.43641 11.6202 2.72501 12.0302 3.0742 12.4063L11.2099 21.1574C11.6346 21.6142 12.3654 21.6142 12.7901 21.1574L20.9258 12.4063C21.2761 12.029 21.5693 11.6173 21.8064 11.1705C22.0443 10.7221 22.2186 10.2576 22.3303 9.77636C22.4435 9.28912 22.5 8.79492 22.5 8.29303C22.5 7.79342 22.4404 7.30137 22.3211 6.81599C22.2017 6.33016 22.0258 5.86187 21.793 5.41046C21.5638 4.96627 21.2755 4.55659 20.9267 4.18079C20.4115 3.63334 19.832 3.21859 19.187 2.93094C18.5424 2.64349 17.8671 2.5 17.1562 2.5C16.4454 2.5 15.7701 2.64349 15.1255 2.93094C14.4809 3.21842 13.9017 3.63285 13.3867 4.17983L12.3682 5.28817M12 5.44986C12.1399 5.44986 12.2735 5.39122 12.3682 5.28817M12 5.44986L12.3682 5.28817" stroke="#191919" stroke-linejoin="round"/>
</svg>
