<svg width="24" height="24" viewBox="0 0 24 24" fill="none" xmlns="http://www.w3.org/2000/svg">
<path d="M19.4083 8.75912C19.2555 8.70632 19.0866 8.73067 18.9549 8.82449C18.8232 8.91831 18.7451 9.07002 18.7451 9.23171V20.6404C18.7451 21.1373 18.4685 21.5413 18.0485 21.6764C16.958 22.027 14.9424 22.5 12 22.5C9.05754 22.5 7.04194 22.027 5.9515 21.6764C5.53148 21.5413 5.25493 21.1373 5.25493 20.6404V9.23171C5.25493 9.07002 5.17674 8.91831 5.04506 8.82449C4.91338 8.73067 4.74446 8.70632 4.59164 8.75912L1.98681 9.65915C1.73227 9.74709 1.46895 9.58843 1.42165 9.3433L0.507361 4.60469C0.48149 4.47061 0.524596 4.34291 0.615709 4.25896C1.01794 3.88833 1.72724 3.26645 2.52251 2.71035C3.33448 2.14257 4.16857 1.69221 4.83113 1.59005C5.62668 1.46737 6.73778 1.49244 7.51115 1.53479C7.708 1.54557 7.93892 1.72884 8.03327 2.05283C8.18591 2.57689 8.49599 3.25144 9.12794 3.7956C9.76763 4.34643 10.6926 4.72505 12 4.72505C13.3074 4.72505 14.2324 4.34643 14.8721 3.7956C15.504 3.25144 15.8141 2.57689 15.9667 2.05283C16.0611 1.72884 16.292 1.54557 16.4888 1.53479C17.2622 1.49244 18.3733 1.46737 19.1689 1.59005C19.8314 1.69221 20.6655 2.14257 21.4775 2.71035C22.2728 3.26645 22.982 3.88833 23.3843 4.25896C23.4754 4.34291 23.5185 4.47061 23.4926 4.60469L22.5783 9.3433C22.531 9.58843 22.2677 9.74709 22.0132 9.65915L19.4083 8.75912Z" stroke="#191919" stroke-linejoin="round"/>
</svg>
