<svg width="22" height="22" viewBox="0 0 22 22" fill="none" xmlns="http://www.w3.org/2000/svg">
<path d="M16.7898 6.04396C16.7898 9.08719 14.2167 11.5879 11 11.5879C7.78341 11.5879 5.21029 9.08719 5.21029 6.04396C5.21029 3.00072 7.78341 0.5 11 0.5C14.2167 0.5 16.7898 3.00072 16.7898 6.04396ZM0.689648 19.503C2.8318 15.9314 6.66899 13.1923 11 13.1923C15.3311 13.1923 19.1683 15.9314 21.3104 19.503C21.5893 19.9682 21.5412 20.4497 21.2913 20.8285C21.0357 21.216 20.5624 21.5 19.9866 21.5H2.01337C1.43762 21.5 0.964273 21.216 0.708654 20.8285C0.45879 20.4497 0.410666 19.9681 0.689648 19.503Z" stroke="#191919" stroke-linejoin="round"/>
</svg>
