<svg width="24" height="24" viewBox="0 0 24 24" fill="none" xmlns="http://www.w3.org/2000/svg">
<path fill-rule="evenodd" clip-rule="evenodd" d="M20.0274 9.95232C20.0274 14.8456 15.8204 18.9046 10.5137 18.9046C5.20702 18.9046 1 14.8456 1 9.95232C1 5.05908 5.20702 1 10.5137 1C15.8204 1 20.0274 5.05908 20.0274 9.95232ZM16.8579 17.8892C15.0946 19.1541 12.8967 19.9046 10.5137 19.9046C4.70714 19.9046 0 15.4488 0 9.95232C0 4.4558 4.70714 0 10.5137 0C16.3203 0 21.0274 4.4558 21.0274 9.95232C21.0274 12.8416 19.7267 15.4433 17.6494 17.2615L24.0007 23.2737L23.3133 23.9999L16.8579 17.8892Z" fill="#191919"/>
</svg>
